<svg width="80" height="80" viewBox="0 0 80 80" fill="none" xmlns="http://www.w3.org/2000/svg">
<g clip-path="url(#clip0_28_659)">
<path d="M76.7723 7.6875H56.6789C56.1345 5.01625 53.7672 3 50.9375 3H29.0625C26.2328 3 23.8655 5.01625 23.3211 7.6875H3.22766C1.44797 7.6875 0 9.13531 0 10.9147V61.4811C0 63.2606 1.44797 64.7083 3.22766 64.7083H31.3548L29.7739 69.5655H26.4911C24.2473 69.5655 22.4217 71.3908 22.4217 73.6344C22.4217 75.2673 23.7505 76.5959 25.3836 76.5959H54.6161C56.2492 76.5959 57.578 75.2675 57.578 73.6344C57.578 71.3908 55.7523 69.5655 53.5086 69.5655H50.2258L48.6448 64.7083H76.772C78.5519 64.7083 79.9997 63.2605 79.9997 61.4811V10.9147C80 9.13531 78.552 7.6875 76.7723 7.6875ZM44.6844 5.34375H50.9375C52.8759 5.34375 54.4531 6.92078 54.4531 8.85938C54.4531 10.798 52.8759 12.375 50.9375 12.375H44.6844C45.4217 11.395 45.8594 10.1775 45.8594 8.85938C45.8594 7.54125 45.4217 6.32375 44.6844 5.34375ZM40 5.34375C41.9384 5.34375 43.5156 6.92078 43.5156 8.85938C43.5156 10.798 41.9384 12.375 40 12.375C38.0616 12.375 36.4844 10.798 36.4844 8.85938C36.4844 6.92078 38.0616 5.34375 40 5.34375ZM29.0625 5.34375H35.3156C34.5783 6.32375 34.1406 7.54125 34.1406 8.85938C34.1406 10.1775 34.5783 11.395 35.3156 12.375H29.0625C27.1241 12.375 25.5469 10.798 25.5469 8.85938C25.5469 6.92078 27.1241 5.34375 29.0625 5.34375ZM53.5088 71.9094C54.4603 71.9094 55.2344 72.6833 55.2344 73.6345C55.2344 73.9752 54.9572 74.2523 54.6162 74.2523H25.3837C25.0428 74.2523 24.7656 73.9753 24.7656 73.6345C24.7656 72.6833 25.5397 71.9094 26.4913 71.9094H34.7352C35.3825 71.9094 35.907 71.3847 35.907 70.7375C35.907 70.0903 35.3825 69.5656 34.7352 69.5656H32.2389L33.8198 64.7084H46.1803L47.7612 69.5656H40.143C39.4956 69.5656 38.9711 70.0903 38.9711 70.7375C38.9711 71.3847 39.4956 71.9094 40.143 71.9094H53.5088ZM77.6562 17.0608H23.5938C22.9464 17.0608 22.4219 17.5855 22.4219 18.2327C22.4219 18.8798 22.9464 19.4045 23.5938 19.4045H77.6562V52.9914H68.7891C68.1417 52.9914 67.6172 53.5161 67.6172 54.1633C67.6172 54.8105 68.1417 55.3352 68.7891 55.3352H77.6562V61.4811C77.6562 61.9683 77.2597 62.3645 76.7723 62.3645H3.22766C2.74031 62.3645 2.34375 61.9681 2.34375 61.4811V55.3352H63.3973C64.0447 55.3352 64.5692 54.8105 64.5692 54.1633C64.5692 53.5161 64.0447 52.9914 63.3973 52.9914H58.9189C58.063 50.5216 55.9762 48.6236 53.3834 48.037C53.375 48.035 53.3666 48.0333 53.358 48.0316L44.4739 46.2294C44.3791 45.5044 44.3606 44.7834 44.42 44.0222C47.5339 41.4181 49.0505 39.1109 49.0505 36.9792C49.0505 36.7481 49.0411 36.5205 49.0211 36.2878C48.9711 35.7778 48.9428 33.4264 48.9527 30.5694C48.9606 28.2416 48.0595 26.0509 46.4158 24.4011C44.7705 22.7498 42.5805 21.8402 40.2494 21.8398C40.2489 21.8398 40.2484 21.8398 40.248 21.8398C37.9167 21.8398 35.7264 22.7492 34.0808 24.4003C32.4364 26.0502 31.5352 28.2411 31.5431 30.5695C31.553 33.4281 31.5247 35.7816 31.4736 36.3044C31.4548 36.5167 31.4453 36.7438 31.4453 36.9791C31.4453 39.108 32.9572 41.4112 36.0591 44.0078C36.1167 44.7525 36.0959 45.4572 35.9964 46.1912L26.9528 48.0309C26.9444 48.0327 26.9361 48.0344 26.9277 48.0364C24.3352 48.6234 22.2489 50.5217 21.3934 52.9914H2.34375V19.4045H18.2302C18.8775 19.4045 19.402 18.8798 19.402 18.2327C19.402 17.5855 18.8775 17.0608 18.2302 17.0608H2.34375V10.9147C2.34375 10.4275 2.74031 10.0312 3.22766 10.0312H23.3209C23.8653 12.7025 26.2327 14.7188 29.0623 14.7188H50.9373C53.767 14.7188 56.1344 12.7025 56.6787 10.0312H76.772C77.2594 10.0312 77.6559 10.4277 77.6559 10.9147V17.0608H77.6562ZM33.8869 30.5614C33.8811 28.8606 34.5395 27.2602 35.7408 26.0548C36.9436 24.8481 38.5441 24.1836 40.248 24.1836H40.2491C41.9525 24.1839 43.5531 24.8486 44.7556 26.0555C45.9566 27.2606 46.6147 28.8609 46.6089 30.5612C46.6006 32.9645 46.6173 35.7911 46.6873 36.5017C46.7002 36.6534 46.7067 36.8141 46.7067 36.9792C46.7067 38.3877 45.2275 40.36 42.5394 42.5352C41.8967 43.0577 41.087 43.3453 40.2537 43.3453C40.2512 43.3453 40.2487 43.3453 40.2462 43.3453C39.4069 43.3456 38.6 43.0584 37.952 42.5313C35.2673 40.3594 33.7889 38.3875 33.7889 36.9792C33.7889 36.8122 33.7953 36.6542 33.8069 36.5217C33.8784 35.7945 33.8952 32.9661 33.8869 30.5614ZM42.1945 46.8567C42.1366 46.9192 42.078 46.982 42.0189 47.0447C41.5064 47.5908 40.882 47.8912 40.2537 47.8912C40.2505 47.8912 40.247 47.8912 40.2436 47.8912C39.6205 47.8912 38.9947 47.59 38.4791 47.0402C38.41 46.9669 38.3416 46.8934 38.2739 46.8202C38.3498 46.3423 38.3972 45.8725 38.4192 45.4025C39.0036 45.5902 39.6164 45.6889 40.235 45.6889H40.2584C40.8703 45.6889 41.4758 45.593 42.0531 45.4106C42.0727 45.8941 42.1186 46.3733 42.1945 46.8567ZM36.5995 48.4603C36.6569 48.5222 36.7136 48.5842 36.7717 48.6456C37.733 49.6708 38.9655 50.2348 40.2373 50.2348H40.2602C41.5366 50.2348 42.7678 49.6717 43.7261 48.6505C43.7739 48.5998 43.8206 48.5487 43.868 48.4978L52.8788 50.3258C54.3925 50.672 55.6564 51.6628 56.3692 52.9914H23.9431C24.6558 51.6625 25.9195 50.6714 27.4334 50.325L36.5995 48.4603Z" fill="#086CF9"/>
</g>
<defs>
<clipPath id="clip0_28_659">
<rect width="80" height="80" fill="white"/>
</clipPath>
</defs>
</svg>
